<svg xmlns="http://www.w3.org/2000/svg" viewBox="0 0 800 800">
  <!-- House top -->
  <path d="M370,240 L470,340 L570,240 L470,140 Z" fill="#e63946" />
  <!-- House middle -->
  <path d="M370,240 L470,340 L470,240 L370,140 Z" fill="#f1a42a" />
  <!-- House bottom -->
  <path d="M470,240 L470,340 L570,240 L570,140 Z" fill="#2a6f97" />
  <!-- House chimney -->
  <path d="M520,190 L520,100 L550,100 L550,220 Z" fill="#0d1b2a" />
  <!-- Brush handle -->
  <path d="M347,400 L453,400 L453,430 L440,470 L360,470 L347,430 Z" fill="#0d1b2a" />
  <!-- Brush base -->
  <path d="M360,470 L440,470 L430,600 L370,600 Z" fill="#0d1b2a" />
  <!-- Brush dot -->
  <circle cx="400" cy="550" r="10" fill="white" />
  <!-- Text -->
  <path d="M120,650 L160,650 Q190,650 200,635 Q210,620 210,600 Q210,580 200,565 Q190,550 160,550 L120,550 Z M155,630 L155,570 Q170,570 175,578 Q180,585 180,600 Q180,615 175,622 Q170,630 155,630 Z" fill="#0d1b2a" />
  <path d="M240,650 A50,50 0 1 0 240,550 A50,50 0 1 0 240,650 Z M240,630 A30,30 0 1 1 240,570 A30,30 0 1 1 240,630 Z" fill="#0d1b2a" />
  <path d="M350,550 L320,650 L290,550 L260,650 L230,550 L260,550 L275,600 L290,550 L305,600 L320,550 Z" fill="#0d1b2a" />
  <path d="M370,550 L370,650 L400,650 L430,605 L430,650 L460,650 L460,550 L430,550 L400,595 L400,550 Z" fill="#0d1b2a" />
  <path d="M480,550 L480,650 L510,650 L510,610 L540,610 L540,650 L570,650 L570,550 L540,550 L540,590 L510,590 L510,550 Z" fill="#0d1b2a" />
  <path d="M590,550 L590,650 L620,650 L620,610 L635,610 L650,650 L680,650 L660,605 Q670,600 675,590 Q680,580 680,570 Q680,560 670,555 Q660,550 650,550 Z M620,590 L620,570 L640,570 Q645,570 645,575 Q645,580 640,580 Q635,580 625,590 Z" fill="#0d1b2a" />
  <!-- PAINTING LLC -->
  <path d="M300,700 L300,750 L320,750 L320,730 L340,730 L340,750 L360,750 L360,700 L340,700 L340,715 L320,715 L320,700 Z" fill="#0d1b2a" />
  <path d="M370,700 L370,750 L430,750 L430,735 L390,735 L390,730 L425,730 L425,715 L390,715 L390,710 L430,710 L430,700 Z" fill="#0d1b2a" />
  <path d="M440,700 L440,750 L460,750 L460,700 Z" fill="#0d1b2a" />
  <path d="M470,700 L470,750 L490,750 L490,730 L500,750 L520,750 L500,725 L520,700 L500,700 L490,720 L490,700 Z" fill="#0d1b2a" />
  <path d="M530,700 L530,750 L550,750 L550,700 Z" fill="#0d1b2a" />
  <path d="M560,700 L560,750 L580,750 L580,730 L590,730 L600,750 L620,750 L605,725 Q613,723 617,718 Q620,713 620,707 Q620,703 613,700 L560,700 Z M580,720 L580,710 L595,710 Q598,710 598,715 Q598,720 595,720 Z" fill="#0d1b2a" />
  <path d="M640,700 L640,750 L700,750 L700,735 L660,735 L660,725 L690,725 L690,715 L660,715 L660,700 Z" fill="#0d1b2a" />
  <path d="M710,700 L710,750 L730,750 L730,700 Z" fill="#0d1b2a" />
  <path d="M740,700 L740,750 L790,750 L790,735 L760,735 L760,700 Z" fill="#0d1b2a" />
  <path d="M800,700 L800,750 L820,750 L820,700 Z" fill="#0d1b2a" />
</svg>