<svg xmlns="http://www.w3.org/2000/svg" viewBox="0 0 500 500">
  <!-- House/Roof Triangle - Red -->
  <path d="M175,120 L250,60 L325,120 Z" fill="#e63946" />
  <!-- House/Roof Triangle - Yellow/Orange -->
  <path d="M175,120 L250,60 L250,120 Z" fill="#f1a42a" />
  <!-- House/Roof Triangle - Blue -->
  <path d="M250,60 L325,120 L250,120 Z" fill="#2a6f97" />
  <!-- House Chimney - Navy Blue -->
  <path d="M290,100 L290,60 L310,60 L310,110 Z" fill="#0d1b2a" />
  <!-- House Base - Navy Blue -->
  <path d="M175,120 L325,120 L325,150 L175,150 Z" fill="#0d1b2a" />
  <!-- Paintbrush Handle - Navy Blue -->
  <path d="M215,190 L285,190 C285,190 290,220 250,260 C210,220 215,190 215,190 Z" fill="#0d1b2a" />
  <!-- Paintbrush Neck - Navy Blue -->
  <path d="M230,170 L270,170 L270,190 L230,190 Z" fill="#0d1b2a" />
  <!-- Paintbrush Dot -->
  <circle cx="250" cy="225" r="7" fill="white" />
  <!-- D -->
  <path d="M150,320 L200,320 Q220,320 230,335 Q240,350 240,370 Q240,390 230,405 Q220,420 200,420 L150,420 Z M190,380 Q190,370 185,360 Q180,350 170,350 L170,390 Q180,390 185,380 Q190,370 190,380 Z" fill="#0d1b2a" />
  <!-- O -->
  <path d="M250,370 A50,50 0 1 0 250,370.0001 Z M250,370 A30,30 0 1 1 250,370.0001 Z" fill="#0d1b2a" />
  <!-- V -->
  <path d="M300,320 L320,420 L340,320 L360,420 L380,320 Z" fill="#0d1b2a" />
  <!-- A -->
  <path d="M390,420 L410,320 L430,420 L420,390 L400,390 L390,420 Z M405,370 L415,370 L410,340 Z" fill="#0d1b2a" />
  <!-- L -->
  <path d="M440,320 L440,420 L490,420 L490,400 L460,400 L460,320 Z" fill="#0d1b2a" />
  <!-- I -->
  <path d="M500,320 L500,420 L520,420 L520,320 Z" fill="#0d1b2a" />
  <!-- N -->
  <path d="M530,320 L530,420 L550,420 L570,350 L570,420 L590,420 L590,320 L570,320 L550,390 L550,320 Z" fill="#0d1b2a" />
  <!-- A -->
  <path d="M600,420 L620,320 L640,420 L630,390 L610,390 L600,420 Z M615,370 L625,370 L620,340 Z" fill="#0d1b2a" />

  <!-- PAINTING LLC -->
  <text x="180" y="460" font-family="Arial, sans-serif" font-weight="bold" font-size="28" fill="#0d1b2a">PAINTING LLC</text>
</svg>